<svg width="293" height="77" viewBox="0 0 293 77" fill="none" xmlns="http://www.w3.org/2000/svg">
<path d="M2.97237 0H34.6776C45.3928 0 54.1998 2.67667 61.0986 8.03C68.0709 13.31 71.557 20.7167 71.557 30.25V46.64C71.557 56.6133 68.181 64.1667 61.4289 69.3C54.6769 74.4333 45.7965 77 34.7877 77H2.97237C2.16506 77 1.46784 76.7067 0.880702 76.12C0.293567 75.5333 0 74.8367 0 74.03V2.97C0 2.16334 0.293567 1.46667 0.880702 0.880003C1.46784 0.293335 2.16506 0 2.97237 0ZM27.5219 21.45V55.55H34.6776C37.1729 55.55 39.1545 54.8167 40.6223 53.35C42.1636 51.81 42.9342 49.5733 42.9342 46.64V30.25C42.9342 24.3833 40.182 21.45 34.6776 21.45H27.5219Z" fill="url(#paint0_linear_1_440)" fill-opacity="0.7"/>
<path d="M110.062 55.55H143.969C144.776 55.55 145.473 55.8433 146.061 56.43C146.648 57.0167 146.941 57.7133 146.941 58.52V74.03C146.941 74.8367 146.648 75.5333 146.061 76.12C145.473 76.7067 144.776 77 143.969 77H86.6132C85.8059 77 85.1087 76.7067 84.5215 76.12C83.9344 75.5333 83.6408 74.8367 83.6408 74.03V2.97C83.6408 2.16334 83.9344 1.46667 84.5215 0.880003C85.1087 0.293335 85.8059 0 86.6132 0H143.088C143.895 0 144.593 0.293335 145.18 0.880003C145.767 1.46667 146.061 2.16334 146.061 2.97V18.48C146.061 19.2867 145.767 19.9833 145.18 20.57C144.593 21.1567 143.895 21.45 143.088 21.45H110.062V28.38H140.666C141.474 28.38 142.171 28.6733 142.758 29.26C143.345 29.8467 143.639 30.5433 143.639 31.35V45.65C143.639 46.4567 143.345 47.1533 142.758 47.74C142.171 48.3267 141.474 48.62 140.666 48.62H110.062V55.55Z" fill="url(#paint1_linear_1_440)" fill-opacity="0.7"/>
<path d="M188.148 54.45H218.643C219.45 54.45 220.147 54.7433 220.734 55.33C221.321 55.9167 221.615 56.6133 221.615 57.42V74.03C221.615 74.8367 221.321 75.5333 220.734 76.12C220.147 76.7067 219.45 77 218.643 77H163.158C162.351 77 161.654 76.7067 161.067 76.12C160.48 75.5333 160.186 74.8367 160.186 74.03V2.97C160.186 2.16334 160.48 1.46667 161.067 0.880003C161.654 0.293335 162.351 0 163.158 0H185.176C185.983 0 186.681 0.293335 187.268 0.880003C187.855 1.46667 188.148 2.16334 188.148 2.97V54.45Z" fill="url(#paint2_linear_1_440)" fill-opacity="0.7"/>
<path d="M259.533 54.45H290.028C290.835 54.45 291.532 54.7433 292.119 55.33C292.706 55.9167 293 56.6133 293 57.42V74.03C293 74.8367 292.706 75.5333 292.119 76.12C291.532 76.7067 290.835 77 290.028 77H234.543C233.736 77 233.039 76.7067 232.452 76.12C231.865 75.5333 231.571 74.8367 231.571 74.03V2.97C231.571 2.16334 231.865 1.46667 232.452 0.880003C233.039 0.293335 233.736 0 234.543 0H256.561C257.368 0 258.066 0.293335 258.653 0.880003C259.24 1.46667 259.533 2.16334 259.533 2.97V54.45Z" fill="url(#paint3_linear_1_440)" fill-opacity="0.7"/>
<defs>
<linearGradient id="paint0_linear_1_440" x1="144.626" y1="4.51637" x2="144.626" y2="77" gradientUnits="userSpaceOnUse">
<stop stop-color="white" stop-opacity="0.979167"/>
<stop offset="1" stop-color="#F2F2F2"/>
</linearGradient>
<linearGradient id="paint1_linear_1_440" x1="144.626" y1="4.51637" x2="144.626" y2="77" gradientUnits="userSpaceOnUse">
<stop stop-color="white" stop-opacity="0.979167"/>
<stop offset="1" stop-color="#F2F2F2"/>
</linearGradient>
<linearGradient id="paint2_linear_1_440" x1="144.626" y1="4.51637" x2="144.626" y2="77" gradientUnits="userSpaceOnUse">
<stop stop-color="white" stop-opacity="0.979167"/>
<stop offset="1" stop-color="#F2F2F2"/>
</linearGradient>
<linearGradient id="paint3_linear_1_440" x1="144.626" y1="4.51637" x2="144.626" y2="77" gradientUnits="userSpaceOnUse">
<stop stop-color="white" stop-opacity="0.979167"/>
<stop offset="1" stop-color="#F2F2F2"/>
</linearGradient>
</defs>
</svg>
