<svg width="24" height="24" viewBox="0 0 24 24" fill="none" xmlns="http://www.w3.org/2000/svg">
<g clip-path="url(#clip0_4616_25)">
<mask id="path-1-inside-1_4616_25" fill="white">
<path d="M17.5 1.91699C16.374 1.93451 15.2725 2.24885 14.3068 2.82826C13.3411 3.40768 12.5454 4.23166 12 5.21699C11.4546 4.23166 10.6589 3.40768 9.69324 2.82826C8.72754 2.24885 7.62605 1.93451 6.5 1.91699C4.70495 1.99498 3.01371 2.78025 1.79579 4.10122C0.577864 5.4222 -0.0677465 7.17152 4.06709e-06 8.96699C4.06709e-06 13.514 4.786 18.48 8.8 21.847C9.69622 22.6001 10.8294 23.013 12 23.013C13.1706 23.013 14.3038 22.6001 15.2 21.847C19.214 18.48 24 13.514 24 8.96699C24.0678 7.17152 23.4221 5.4222 22.2042 4.10122C20.9863 2.78025 19.2951 1.99498 17.5 1.91699ZM13.915 20.317C13.379 20.7684 12.7008 21.0159 12 21.0159C11.2993 21.0159 10.621 20.7684 10.085 20.317C4.947 16.006 2 11.87 2 8.96699C1.93164 7.70171 2.36637 6.46072 3.20937 5.51469C4.05236 4.56866 5.23524 3.99434 6.5 3.91699C7.76477 3.99434 8.94764 4.56866 9.79064 5.51469C10.6336 6.46072 11.0684 7.70171 11 8.96699C11 9.23221 11.1054 9.48656 11.2929 9.6741C11.4804 9.86164 11.7348 9.96699 12 9.96699C12.2652 9.96699 12.5196 9.86164 12.7071 9.6741C12.8946 9.48656 13 9.23221 13 8.96699C12.9316 7.70171 13.3664 6.46072 14.2094 5.51469C15.0524 4.56866 16.2352 3.99434 17.5 3.91699C18.7648 3.99434 19.9476 4.56866 20.7906 5.51469C21.6336 6.46072 22.0684 7.70171 22 8.96699C22 11.87 19.053 16.006 13.915 20.313V20.317Z"/>
</mask>
<path d="M17.5 1.91699C16.374 1.93451 15.2725 2.24885 14.3068 2.82826C13.3411 3.40768 12.5454 4.23166 12 5.21699C11.4546 4.23166 10.6589 3.40768 9.69324 2.82826C8.72754 2.24885 7.62605 1.93451 6.5 1.91699C4.70495 1.99498 3.01371 2.78025 1.79579 4.10122C0.577864 5.4222 -0.0677465 7.17152 4.06709e-06 8.96699C4.06709e-06 13.514 4.786 18.48 8.8 21.847C9.69622 22.6001 10.8294 23.013 12 23.013C13.1706 23.013 14.3038 22.6001 15.2 21.847C19.214 18.48 24 13.514 24 8.96699C24.0678 7.17152 23.4221 5.4222 22.2042 4.10122C20.9863 2.78025 19.2951 1.99498 17.5 1.91699ZM13.915 20.317C13.379 20.7684 12.7008 21.0159 12 21.0159C11.2993 21.0159 10.621 20.7684 10.085 20.317C4.947 16.006 2 11.87 2 8.96699C1.93164 7.70171 2.36637 6.46072 3.20937 5.51469C4.05236 4.56866 5.23524 3.99434 6.5 3.91699C7.76477 3.99434 8.94764 4.56866 9.79064 5.51469C10.6336 6.46072 11.0684 7.70171 11 8.96699C11 9.23221 11.1054 9.48656 11.2929 9.6741C11.4804 9.86164 11.7348 9.96699 12 9.96699C12.2652 9.96699 12.5196 9.86164 12.7071 9.6741C12.8946 9.48656 13 9.23221 13 8.96699C12.9316 7.70171 13.3664 6.46072 14.2094 5.51469C15.0524 4.56866 16.2352 3.99434 17.5 3.91699C18.7648 3.99434 19.9476 4.56866 20.7906 5.51469C21.6336 6.46072 22.0684 7.70171 22 8.96699C22 11.87 19.053 16.006 13.915 20.313V20.317Z" fill="#292D32" stroke="#F9F9F9" stroke-width="0.6" mask="url(#path-1-inside-1_4616_25)"/>
</g>
<defs>
<clipPath id="clip0_4616_25">
<rect width="24" height="24" fill="white"/>
</clipPath>
</defs>
</svg>
