<svg width="49" height="49" viewBox="0 0 49 49" fill="none" xmlns="http://www.w3.org/2000/svg">
<circle cx="24.5" cy="24.5" r="24.5" fill="#F9F9F9"/>
<path d="M34.2232 33.8578V31.6184C34.2232 30.4306 33.7338 29.2914 32.8628 28.4515C31.9918 27.6115 30.8104 27.1396 29.5785 27.1396H20.2892C19.0574 27.1396 17.876 27.6115 17.0049 28.4515C16.1339 29.2914 15.6445 30.4306 15.6445 31.6184V33.8578" stroke="#292D32" stroke-width="1.5" stroke-linecap="round" stroke-linejoin="round"/>
<path d="M24.9337 22.6607C27.4989 22.6607 29.5784 20.6555 29.5784 18.1819C29.5784 15.7083 27.4989 13.7031 24.9337 13.7031C22.3685 13.7031 20.2891 15.7083 20.2891 18.1819C20.2891 20.6555 22.3685 22.6607 24.9337 22.6607Z" stroke="#292D32" stroke-width="1.5" stroke-linecap="round" stroke-linejoin="round"/>
</svg>
