<svg width="19" height="19" viewBox="0 0 19 19" fill="none" xmlns="http://www.w3.org/2000/svg">
<g id="vuesax/linear/call-calling">
<g id="call-calling">
<g id="call-calling_2">
<path id="Vector" d="M16.7343 14.0725C16.7343 14.3387 16.6752 14.6122 16.5495 14.8784C16.4238 15.1445 16.2612 15.3959 16.0468 15.6324C15.6845 16.0316 15.2853 16.32 14.8343 16.5048C14.3908 16.6896 13.9102 16.7857 13.3927 16.7857C12.6387 16.7857 11.8328 16.6083 10.9827 16.246C10.1325 15.8838 9.2823 15.3959 8.43951 14.7823C7.58934 14.1613 6.78351 13.4737 6.01466 12.7123C5.25319 11.9434 4.56566 11.1376 3.95205 10.2948C3.34584 9.452 2.85791 8.60922 2.50305 7.77382C2.14819 6.93104 1.97076 6.12521 1.97076 5.35636C1.97076 4.85364 2.05948 4.37311 2.23691 3.92954C2.41434 3.47857 2.69526 3.06457 3.08709 2.69493C3.56023 2.22918 4.07773 2 4.6248 2C4.8318 2 5.0388 2.04436 5.22362 2.13307C5.41584 2.22179 5.58587 2.35486 5.71894 2.54707L7.43409 4.96454C7.56716 5.14936 7.66326 5.31939 7.7298 5.48204C7.79634 5.63729 7.8333 5.79254 7.8333 5.933C7.8333 6.11043 7.78155 6.28786 7.67805 6.45789C7.58194 6.62793 7.44148 6.80536 7.26405 6.98279L6.70219 7.56682C6.62087 7.64814 6.58391 7.74425 6.58391 7.86254C6.58391 7.92168 6.5913 7.97343 6.60609 8.03257C6.62826 8.09172 6.65044 8.13607 6.66523 8.18043C6.7983 8.42439 7.02748 8.74229 7.35276 9.12672C7.68544 9.51114 8.0403 9.90297 8.42473 10.2948C8.82394 10.6866 9.20837 11.0489 9.60019 11.3815C9.98462 11.7068 10.3025 11.9286 10.5539 12.0617C10.5908 12.0765 10.6352 12.0986 10.6869 12.1208C10.7461 12.143 10.8052 12.1504 10.8718 12.1504C10.9974 12.1504 11.0935 12.106 11.1749 12.0247L11.7367 11.4703C11.9215 11.2854 12.099 11.145 12.269 11.0563C12.439 10.9528 12.6091 10.901 12.7939 10.901C12.9344 10.901 13.0822 10.9306 13.2449 10.9971C13.4075 11.0636 13.5775 11.1598 13.7624 11.2854L16.2094 13.0228C16.4016 13.1558 16.5347 13.3111 16.616 13.4959C16.6899 13.6807 16.7343 13.8655 16.7343 14.0725Z" stroke="#48A4EB" stroke-miterlimit="10"/>
<path id="Vector_2" d="M14.169 7.1749C14.169 6.73133 13.8215 6.05119 13.304 5.49672C12.8309 4.98662 12.2025 4.5874 11.5815 4.5874" stroke="#48A4EB" stroke-linecap="round" stroke-linejoin="round"/>
<path id="Vector_3" d="M16.7565 7.175C16.7565 4.31396 14.4425 2 11.5815 2" stroke="#48A4EB" stroke-linecap="round" stroke-linejoin="round"/>
</g>
</g>
</g>
</svg>
